<svg width="17" height="23" viewBox="0 0 17 23" fill="none" xmlns="http://www.w3.org/2000/svg">
<g clip-path="url(#clip0_0_124)">
<path d="M14.0788 7.23131C14.0183 7.00452 13.8954 6.76287 13.8045 6.55129C12.7167 3.93707 10.3399 3.00018 8.42078 3.00018C5.85165 3.00018 3.02206 4.72289 2.64429 8.27381V8.99928C2.64429 9.02955 2.65472 9.30152 2.66954 9.43756C2.88131 11.1298 4.21665 12.9284 5.21393 14.6206C6.28686 16.4337 7.40018 18.2173 8.50319 20.0001C9.18332 18.8367 9.86101 17.658 10.5257 16.5246C10.7068 16.192 10.9171 15.8596 11.0984 15.5422C11.2193 15.3308 11.4502 15.1194 11.5557 14.9228C12.6285 12.9584 14.3555 10.9789 14.3555 9.02951V8.22867C14.3555 8.01733 14.0936 7.27688 14.0788 7.23131ZM8.46781 10.8732C7.71262 10.8732 6.88601 10.4956 6.478 9.4527C6.41721 9.2867 6.42211 8.95402 6.42211 8.92355V8.4551C6.42211 7.12566 7.55093 6.5211 8.53295 6.5211C9.74192 6.5211 10.677 7.48834 10.677 8.69731C10.677 9.90624 9.67678 10.8732 8.46781 10.8732Z" fill="#11263A"/>
</g>
<defs>
<clipPath id="clip0_0_124">
<rect width="17" height="17" fill="white" transform="matrix(-1 0 0 1 17 3.00018)"/>
</clipPath>
</defs>
</svg>
