<svg width="109" height="93" viewBox="0 0 109 93" fill="none" xmlns="http://www.w3.org/2000/svg">
<rect x="77" y="45" width="45" height="45" rx="22.5" transform="rotate(-180 77 45)" fill="white"/>
<path d="M58.3245 15.3L61.7265 15.3V30H58.3245V15.3ZM51.6465 30H48.2445V15.3H51.6465V30ZM58.5765 23.973H51.3945V21.096H58.5765V23.973Z" fill="#212830"/>
<path d="M13.2519 70.3H15.3519V85H13.2519V70.3ZM4.8099 85H2.7099V70.3H4.8099V85ZM13.4409 78.448H4.5999V76.621H13.4409V78.448ZM26.4255 85V82.648L26.3205 82.207V78.196C26.3205 77.342 26.0685 76.684 25.5645 76.222C25.0745 75.746 24.3325 75.508 23.3385 75.508C22.6805 75.508 22.0365 75.62 21.4065 75.844C20.7765 76.054 20.2445 76.341 19.8105 76.705L18.9705 75.193C19.5445 74.731 20.2305 74.381 21.0285 74.143C21.8405 73.891 22.6875 73.765 23.5695 73.765C25.0955 73.765 26.2715 74.136 27.0975 74.878C27.9235 75.62 28.3365 76.754 28.3365 78.28V85H26.4255ZM22.7715 85.126C21.9455 85.126 21.2175 84.986 20.5875 84.706C19.9715 84.426 19.4955 84.041 19.1595 83.551C18.8235 83.047 18.6555 82.48 18.6555 81.85C18.6555 81.248 18.7955 80.702 19.0755 80.212C19.3695 79.722 19.8385 79.33 20.4825 79.036C21.1405 78.742 22.0225 78.595 23.1285 78.595H26.6565V80.044H23.2125C22.2045 80.044 21.5255 80.212 21.1755 80.548C20.8255 80.884 20.6505 81.29 20.6505 81.766C20.6505 82.312 20.8675 82.753 21.3015 83.089C21.7355 83.411 22.3375 83.572 23.1075 83.572C23.8635 83.572 24.5215 83.404 25.0815 83.068C25.6555 82.732 26.0685 82.242 26.3205 81.598L26.7195 82.984C26.4535 83.642 25.9845 84.167 25.3125 84.559C24.6405 84.937 23.7935 85.126 22.7715 85.126ZM35.0371 85.147C36.0171 85.147 36.8851 85.007 37.6411 84.727C38.4111 84.433 39.0201 84.034 39.4681 83.53C39.9161 83.012 40.1401 82.417 40.1401 81.745C40.1401 80.905 39.7831 80.24 39.0691 79.75C38.3551 79.26 37.3751 79.015 36.1291 79.015L36.0451 79.498C36.7731 79.498 37.4171 79.379 37.9771 79.141C38.5371 78.903 38.9851 78.581 39.3211 78.175C39.6571 77.755 39.8251 77.279 39.8251 76.747C39.8251 76.117 39.6011 75.571 39.1531 75.109C38.7191 74.647 38.1241 74.297 37.3681 74.059C36.6121 73.807 35.7511 73.695 34.7851 73.723C34.1411 73.737 33.4901 73.835 32.8321 74.017C32.1881 74.185 31.5301 74.43 30.8581 74.752L31.4041 76.327C32.0061 76.033 32.5941 75.816 33.1681 75.676C33.7561 75.536 34.3301 75.459 34.8901 75.445C35.4641 75.445 35.9611 75.508 36.3811 75.634C36.8151 75.76 37.1511 75.942 37.3891 76.18C37.6271 76.418 37.7461 76.705 37.7461 77.041C37.7461 77.349 37.6411 77.622 37.4311 77.86C37.2351 78.084 36.9551 78.252 36.5911 78.364C36.2271 78.476 35.8001 78.532 35.3101 78.532H33.4201V79.981H35.4361C36.2621 79.981 36.9061 80.121 37.3681 80.401C37.8301 80.681 38.0611 81.08 38.0611 81.598C38.0611 81.962 37.9351 82.284 37.6831 82.564C37.4311 82.83 37.0671 83.04 36.5911 83.194C36.1291 83.348 35.5761 83.425 34.9321 83.425C34.2321 83.425 33.5391 83.334 32.8531 83.152C32.1671 82.956 31.5581 82.69 31.0261 82.354L30.4171 83.887C31.0471 84.293 31.7611 84.608 32.5591 84.832C33.3711 85.042 34.1971 85.147 35.0371 85.147ZM43.205 85V73.87H48.371C49.673 73.87 50.695 74.122 51.437 74.626C52.193 75.116 52.571 75.816 52.571 76.726C52.571 77.636 52.214 78.343 51.5 78.847C50.8 79.337 49.869 79.582 48.707 79.582L49.022 79.036C50.352 79.036 51.339 79.281 51.983 79.771C52.627 80.261 52.949 80.982 52.949 81.934C52.949 82.9 52.585 83.656 51.857 84.202C51.143 84.734 50.044 85 48.56 85H43.205ZM45.179 83.446H48.413C49.253 83.446 49.883 83.32 50.303 83.068C50.723 82.802 50.933 82.382 50.933 81.808C50.933 81.22 50.737 80.793 50.345 80.527C49.967 80.247 49.365 80.107 48.539 80.107H45.179V83.446ZM45.179 78.658H48.203C48.973 78.658 49.554 78.518 49.946 78.238C50.352 77.944 50.555 77.538 50.555 77.02C50.555 76.488 50.352 76.089 49.946 75.823C49.554 75.557 48.973 75.424 48.203 75.424H45.179V78.658ZM62.9294 85V82.648L62.8244 82.207V78.196C62.8244 77.342 62.5724 76.684 62.0684 76.222C61.5784 75.746 60.8364 75.508 59.8424 75.508C59.1844 75.508 58.5404 75.62 57.9104 75.844C57.2804 76.054 56.7484 76.341 56.3144 76.705L55.4744 75.193C56.0484 74.731 56.7344 74.381 57.5324 74.143C58.3444 73.891 59.1914 73.765 60.0734 73.765C61.5994 73.765 62.7754 74.136 63.6014 74.878C64.4274 75.62 64.8404 76.754 64.8404 78.28V85H62.9294ZM59.2754 85.126C58.4494 85.126 57.7214 84.986 57.0914 84.706C56.4754 84.426 55.9994 84.041 55.6634 83.551C55.3274 83.047 55.1594 82.48 55.1594 81.85C55.1594 81.248 55.2994 80.702 55.5794 80.212C55.8734 79.722 56.3424 79.33 56.9864 79.036C57.6444 78.742 58.5264 78.595 59.6324 78.595H63.1604V80.044H59.7164C58.7084 80.044 58.0294 80.212 57.6794 80.548C57.3294 80.884 57.1544 81.29 57.1544 81.766C57.1544 82.312 57.3714 82.753 57.8054 83.089C58.2394 83.411 58.8414 83.572 59.6114 83.572C60.3674 83.572 61.0254 83.404 61.5854 83.068C62.1594 82.732 62.5724 82.242 62.8244 81.598L63.2234 82.984C62.9574 83.642 62.4884 84.167 61.8164 84.559C61.1444 84.937 60.2974 85.126 59.2754 85.126ZM68.4706 85V73.87H70.4866V78.595H76.8286V73.87H78.8446V85H76.8286V80.338H70.4866V85H68.4706ZM82.7645 85V73.87H84.7805V81.976L91.6055 73.87H93.4325V85H91.4165V76.894L84.6125 85H82.7645ZM102.302 85.126C101.112 85.126 100.062 84.881 99.1516 84.391C98.2556 83.901 97.5556 83.229 97.0516 82.375C96.5616 81.521 96.3166 80.541 96.3166 79.435C96.3166 78.329 96.5546 77.349 97.0306 76.495C97.5206 75.641 98.1856 74.976 99.0256 74.5C99.8796 74.01 100.839 73.765 101.903 73.765C102.981 73.765 103.933 74.003 104.759 74.479C105.585 74.955 106.229 75.627 106.691 76.495C107.167 77.349 107.405 78.35 107.405 79.498C107.405 79.582 107.398 79.68 107.384 79.792C107.384 79.904 107.377 80.009 107.363 80.107H97.8916V78.658H106.313L105.494 79.162C105.508 78.448 105.361 77.811 105.053 77.251C104.745 76.691 104.318 76.257 103.772 75.949C103.24 75.627 102.617 75.466 101.903 75.466C101.203 75.466 100.58 75.627 100.034 75.949C99.4876 76.257 99.0606 76.698 98.7526 77.272C98.4446 77.832 98.2906 78.476 98.2906 79.204V79.54C98.2906 80.282 98.4586 80.947 98.7946 81.535C99.1446 82.109 99.6276 82.557 100.244 82.879C100.86 83.201 101.567 83.362 102.365 83.362C103.023 83.362 103.618 83.25 104.15 83.026C104.696 82.802 105.172 82.466 105.578 82.018L106.691 83.32C106.187 83.908 105.557 84.356 104.801 84.664C104.059 84.972 103.226 85.126 102.302 85.126Z" fill="white"/>
</svg>
