<svg width="109" height="93" viewBox="0 0 109 93" fill="none" xmlns="http://www.w3.org/2000/svg">
<rect x="77" y="45.0002" width="45" height="45" rx="22.5" transform="rotate(-180 77 45.0002)" fill="#11263A"/>
<path d="M58.3245 15.3002L61.7265 15.3002V30.0002H58.3245V15.3002ZM51.6465 30.0002H48.2445V15.3002H51.6465V30.0002ZM58.5765 23.9732H51.3945V21.0962H58.5765V23.9732Z" fill="white"/>
<path d="M13.2519 70.3002H15.3519V85.0002H13.2519V70.3002ZM4.8099 85.0002H2.7099V70.3002H4.8099V85.0002ZM13.4409 78.4482H4.5999V76.6212H13.4409V78.4482ZM26.4255 85.0002V82.6482L26.3205 82.2072V78.1962C26.3205 77.3422 26.0685 76.6842 25.5645 76.2222C25.0745 75.7462 24.3325 75.5082 23.3385 75.5082C22.6805 75.5082 22.0365 75.6202 21.4065 75.8442C20.7765 76.0542 20.2445 76.3412 19.8105 76.7052L18.9705 75.1932C19.5445 74.7312 20.2305 74.3812 21.0285 74.1432C21.8405 73.8912 22.6875 73.7652 23.5695 73.7652C25.0955 73.7652 26.2715 74.1362 27.0975 74.8782C27.9235 75.6202 28.3365 76.7542 28.3365 78.2802V85.0002H26.4255ZM22.7715 85.1262C21.9455 85.1262 21.2175 84.9862 20.5875 84.7062C19.9715 84.4262 19.4955 84.0412 19.1595 83.5512C18.8235 83.0472 18.6555 82.4802 18.6555 81.8502C18.6555 81.2482 18.7955 80.7022 19.0755 80.2122C19.3695 79.7222 19.8385 79.3302 20.4825 79.0362C21.1405 78.7422 22.0225 78.5952 23.1285 78.5952H26.6565V80.0442H23.2125C22.2045 80.0442 21.5255 80.2122 21.1755 80.5482C20.8255 80.8842 20.6505 81.2902 20.6505 81.7662C20.6505 82.3122 20.8675 82.7532 21.3015 83.0892C21.7355 83.4112 22.3375 83.5722 23.1075 83.5722C23.8635 83.5722 24.5215 83.4042 25.0815 83.0682C25.6555 82.7322 26.0685 82.2422 26.3205 81.5982L26.7195 82.9842C26.4535 83.6422 25.9845 84.1672 25.3125 84.5592C24.6405 84.9372 23.7935 85.1262 22.7715 85.1262ZM35.0371 85.1472C36.0171 85.1472 36.8851 85.0072 37.6411 84.7272C38.4111 84.4332 39.0201 84.0342 39.4681 83.5302C39.9161 83.0122 40.1401 82.4172 40.1401 81.7452C40.1401 80.9052 39.7831 80.2402 39.0691 79.7502C38.3551 79.2602 37.3751 79.0152 36.1291 79.0152L36.0451 79.4982C36.7731 79.4982 37.4171 79.3792 37.9771 79.1412C38.5371 78.9032 38.9851 78.5812 39.3211 78.1752C39.6571 77.7552 39.8251 77.2792 39.8251 76.7472C39.8251 76.1172 39.6011 75.5712 39.1531 75.1092C38.7191 74.6472 38.1241 74.2972 37.3681 74.0592C36.6121 73.8072 35.7511 73.6952 34.7851 73.7232C34.1411 73.7372 33.4901 73.8352 32.8321 74.0172C32.1881 74.1852 31.5301 74.4302 30.8581 74.7522L31.4041 76.3272C32.0061 76.0332 32.5941 75.8162 33.1681 75.6762C33.7561 75.5362 34.3301 75.4592 34.8901 75.4452C35.4641 75.4452 35.9611 75.5082 36.3811 75.6342C36.8151 75.7602 37.1511 75.9422 37.3891 76.1802C37.6271 76.4182 37.7461 76.7052 37.7461 77.0412C37.7461 77.3492 37.6411 77.6222 37.4311 77.8602C37.2351 78.0842 36.9551 78.2522 36.5911 78.3642C36.2271 78.4762 35.8001 78.5322 35.3101 78.5322H33.4201V79.9812H35.4361C36.2621 79.9812 36.9061 80.1212 37.3681 80.4012C37.8301 80.6812 38.0611 81.0802 38.0611 81.5982C38.0611 81.9622 37.9351 82.2842 37.6831 82.5642C37.4311 82.8302 37.0671 83.0402 36.5911 83.1942C36.1291 83.3482 35.5761 83.4252 34.9321 83.4252C34.2321 83.4252 33.5391 83.3342 32.8531 83.1522C32.1671 82.9562 31.5581 82.6902 31.0261 82.3542L30.4171 83.8872C31.0471 84.2932 31.7611 84.6082 32.5591 84.8322C33.3711 85.0422 34.1971 85.1472 35.0371 85.1472ZM43.205 85.0002V73.8702H48.371C49.673 73.8702 50.695 74.1222 51.437 74.6262C52.193 75.1162 52.571 75.8162 52.571 76.7262C52.571 77.6362 52.214 78.3432 51.5 78.8472C50.8 79.3372 49.869 79.5822 48.707 79.5822L49.022 79.0362C50.352 79.0362 51.339 79.2812 51.983 79.7712C52.627 80.2612 52.949 80.9822 52.949 81.9342C52.949 82.9002 52.585 83.6562 51.857 84.2022C51.143 84.7342 50.044 85.0002 48.56 85.0002H43.205ZM45.179 83.4462H48.413C49.253 83.4462 49.883 83.3202 50.303 83.0682C50.723 82.8022 50.933 82.3822 50.933 81.8082C50.933 81.2202 50.737 80.7932 50.345 80.5272C49.967 80.2472 49.365 80.1072 48.539 80.1072H45.179V83.4462ZM45.179 78.6582H48.203C48.973 78.6582 49.554 78.5182 49.946 78.2382C50.352 77.9442 50.555 77.5382 50.555 77.0202C50.555 76.4882 50.352 76.0892 49.946 75.8232C49.554 75.5572 48.973 75.4242 48.203 75.4242H45.179V78.6582ZM62.9294 85.0002V82.6482L62.8244 82.2072V78.1962C62.8244 77.3422 62.5724 76.6842 62.0684 76.2222C61.5784 75.7462 60.8364 75.5082 59.8424 75.5082C59.1844 75.5082 58.5404 75.6202 57.9104 75.8442C57.2804 76.0542 56.7484 76.3412 56.3144 76.7052L55.4744 75.1932C56.0484 74.7312 56.7344 74.3812 57.5324 74.1432C58.3444 73.8912 59.1914 73.7652 60.0734 73.7652C61.5994 73.7652 62.7754 74.1362 63.6014 74.8782C64.4274 75.6202 64.8404 76.7542 64.8404 78.2802V85.0002H62.9294ZM59.2754 85.1262C58.4494 85.1262 57.7214 84.9862 57.0914 84.7062C56.4754 84.4262 55.9994 84.0412 55.6634 83.5512C55.3274 83.0472 55.1594 82.4802 55.1594 81.8502C55.1594 81.2482 55.2994 80.7022 55.5794 80.2122C55.8734 79.7222 56.3424 79.3302 56.9864 79.0362C57.6444 78.7422 58.5264 78.5952 59.6324 78.5952H63.1604V80.0442H59.7164C58.7084 80.0442 58.0294 80.2122 57.6794 80.5482C57.3294 80.8842 57.1544 81.2902 57.1544 81.7662C57.1544 82.3122 57.3714 82.7532 57.8054 83.0892C58.2394 83.4112 58.8414 83.5722 59.6114 83.5722C60.3674 83.5722 61.0254 83.4042 61.5854 83.0682C62.1594 82.7322 62.5724 82.2422 62.8244 81.5982L63.2234 82.9842C62.9574 83.6422 62.4884 84.1672 61.8164 84.5592C61.1444 84.9372 60.2974 85.1262 59.2754 85.1262ZM68.4706 85.0002V73.8702H70.4866V78.5952H76.8286V73.8702H78.8446V85.0002H76.8286V80.3382H70.4866V85.0002H68.4706ZM82.7645 85.0002V73.8702H84.7805V81.9762L91.6055 73.8702H93.4325V85.0002H91.4165V76.8942L84.6125 85.0002H82.7645ZM102.302 85.1262C101.112 85.1262 100.062 84.8812 99.1516 84.3912C98.2556 83.9012 97.5556 83.2292 97.0516 82.3752C96.5616 81.5212 96.3166 80.5412 96.3166 79.4352C96.3166 78.3292 96.5546 77.3492 97.0306 76.4952C97.5206 75.6412 98.1856 74.9762 99.0256 74.5002C99.8796 74.0102 100.839 73.7652 101.903 73.7652C102.981 73.7652 103.933 74.0032 104.759 74.4792C105.585 74.9552 106.229 75.6272 106.691 76.4952C107.167 77.3492 107.405 78.3502 107.405 79.4982C107.405 79.5822 107.398 79.6802 107.384 79.7922C107.384 79.9042 107.377 80.0092 107.363 80.1072H97.8916V78.6582H106.313L105.494 79.1622C105.508 78.4482 105.361 77.8112 105.053 77.2512C104.745 76.6912 104.318 76.2572 103.772 75.9492C103.24 75.6272 102.617 75.4662 101.903 75.4662C101.203 75.4662 100.58 75.6272 100.034 75.9492C99.4876 76.2572 99.0606 76.6982 98.7526 77.2722C98.4446 77.8322 98.2906 78.4762 98.2906 79.2042V79.5402C98.2906 80.2822 98.4586 80.9472 98.7946 81.5352C99.1446 82.1092 99.6276 82.5572 100.244 82.8792C100.86 83.2012 101.567 83.3622 102.365 83.3622C103.023 83.3622 103.618 83.2502 104.15 83.0262C104.696 82.8022 105.172 82.4662 105.578 82.0182L106.691 83.3202C106.187 83.9082 105.557 84.3562 104.801 84.6642C104.059 84.9722 103.226 85.1262 102.302 85.1262Z" fill="#11263A"/>
</svg>
