<svg width="16" height="16" viewBox="0 0 16 16" fill="none" xmlns="http://www.w3.org/2000/svg">
<path d="M12.1641 10.5838C11.6414 10.0677 10.9888 10.0677 10.4694 10.5838C10.0732 10.9767 9.67699 11.3695 9.28744 11.7691C9.1809 11.879 9.091 11.9023 8.96115 11.829C8.70479 11.6892 8.43177 11.576 8.18539 11.4228C7.03673 10.7003 6.07452 9.77141 5.22218 8.72597C4.79934 8.20657 4.42312 7.65055 4.16009 7.02462C4.10682 6.8981 4.11681 6.81486 4.22002 6.71165C4.61622 6.32876 5.00244 5.93589 5.39198 5.54301C5.93469 4.99698 5.93469 4.35773 5.38866 3.80837C5.07902 3.4954 4.76938 3.18909 4.45974 2.87612C4.14011 2.55649 3.82381 2.23354 3.50086 1.91724C2.97813 1.40783 2.32556 1.40783 1.80617 1.92057C1.40663 2.31344 1.02375 2.71631 0.617555 3.10252C0.241327 3.45877 0.0515486 3.89493 0.0115952 4.40434C-0.0516643 5.23337 0.151432 6.01579 0.437765 6.77824C1.02375 8.3564 1.91604 9.7581 2.99811 11.0433C4.45974 12.7812 6.20437 14.1563 8.24532 15.1485C9.16425 15.5946 10.1165 15.9376 11.1519 15.9942C11.8644 16.0341 12.4837 15.8543 12.9798 15.2983C13.3194 14.9187 13.7023 14.5725 14.0619 14.2096C14.5946 13.6702 14.5979 13.0176 14.0685 12.4849C13.4359 11.849 12.8 11.2164 12.1641 10.5838Z" fill="#11263A"/>
<path d="M11.5284 7.93122L12.7569 7.72146C12.5638 6.59278 12.0311 5.57064 11.2221 4.75826C10.3664 3.90259 9.28431 3.36322 8.09237 3.19674L7.91924 4.43197C8.84149 4.56182 9.68052 4.978 10.3431 5.64056C10.969 6.2665 11.3785 7.0589 11.5284 7.93122Z" fill="#11263A"/>
<path d="M13.4494 2.59049C12.031 1.17215 10.2364 0.276527 8.25542 0.000183105L8.08229 1.23541C9.79363 1.47513 11.3452 2.25089 12.5704 3.4728C13.7324 4.63478 14.4948 6.10306 14.7712 7.71785L15.9997 7.50809C15.6768 5.63694 14.7945 3.93892 13.4494 2.59049Z" fill="#11263A"/>
</svg>
