<svg width="30" height="30" viewBox="0 0 30 30" fill="none" xmlns="http://www.w3.org/2000/svg">
<rect width="30" height="30" rx="15" fill="#B50508"/>
<path d="M20.2048 15.2184C20.1418 14.932 20.0021 14.6919 19.7862 14.4978C19.5702 14.3038 19.3215 14.1897 19.04 14.1557C18.1471 14.0587 16.8005 14.0102 15 14.0102C13.1995 14.0102 11.8553 14.0587 10.9672 14.1557C10.681 14.1897 10.4311 14.3038 10.2175 14.4978C10.0039 14.6919 9.86318 14.9321 9.79521 15.2184C9.66906 15.7814 9.60596 16.6307 9.60596 17.7662C9.60596 18.9212 9.66906 19.7705 9.79521 20.314C9.85839 20.6002 9.99793 20.8406 10.2139 21.0346C10.4298 21.2287 10.6785 21.3403 10.96 21.3694C11.853 21.4713 13.1997 21.5223 15 21.5223C16.8003 21.5223 18.1472 21.4713 19.0399 21.3694C19.3215 21.3403 19.5689 21.2287 19.7825 21.0346C19.9961 20.8406 20.1368 20.6002 20.2047 20.314C20.3309 19.751 20.394 18.9018 20.394 17.7662C20.394 16.6113 20.3308 15.762 20.2048 15.2184ZM12.6853 15.9538H11.9065V20.0956H11.1786V15.9538H10.4142V15.2695H12.6854L12.6853 15.9538ZM14.6507 20.0956H14.0028V19.7024C13.7408 19.9985 13.4932 20.1465 13.2603 20.1465C13.0371 20.1465 12.8963 20.0567 12.8382 19.8772C12.7994 19.7607 12.7799 19.5835 12.7799 19.3457V16.4996H13.4277V19.1492C13.4277 19.3044 13.4302 19.3894 13.4351 19.404C13.4496 19.5059 13.5005 19.5569 13.5879 19.5569C13.7189 19.5569 13.8573 19.455 14.0028 19.2511V16.4996H14.6507L14.6507 20.0956ZM17.1256 19.0182C17.1256 19.3724 17.1038 19.6152 17.0603 19.7463C16.9776 20.013 16.8055 20.1465 16.5435 20.1465C16.3105 20.1465 16.0849 20.013 15.8664 19.7463V20.0956H15.2187V15.2695H15.8664V16.8491C16.0752 16.5872 16.3008 16.4562 16.5435 16.4562C16.8055 16.4562 16.9776 16.5921 17.0603 16.8638C17.1038 16.9899 17.1256 17.2301 17.1256 17.5844V19.0182ZM19.586 18.4214H18.2831V19.0547C18.2831 19.3895 18.3946 19.5569 18.6179 19.5569C18.7779 19.5569 18.8751 19.4696 18.909 19.2948C18.9186 19.2463 18.9236 19.0983 18.9236 18.8508H19.586V18.9454C19.586 19.1833 19.581 19.3239 19.5714 19.3677C19.5569 19.4986 19.5061 19.6296 19.4186 19.7607C19.2439 20.0179 18.9816 20.1465 18.6322 20.1465C18.2976 20.1465 18.0355 20.0227 17.8461 19.7753C17.7055 19.5958 17.6351 19.3143 17.6351 18.9309V17.6715C17.6351 17.2882 17.703 17.0067 17.8388 16.8271C18.0281 16.5797 18.2878 16.456 18.6179 16.456C18.9431 16.456 19.2004 16.5797 19.3894 16.8271C19.5206 17.0067 19.586 17.2882 19.586 17.6715V18.4214Z" fill="white"/>
<path d="M16.1937 17.0454C16.0821 17.0454 15.973 17.099 15.8662 17.2056V19.3965C15.973 19.5033 16.0821 19.5566 16.1937 19.5566C16.3829 19.5566 16.4778 19.3942 16.4778 19.0689V17.5331C16.4777 17.2079 16.3831 17.0454 16.1937 17.0454Z" fill="white"/>
<path d="M18.6104 17.0454C18.392 17.0454 18.2828 17.2105 18.2828 17.5403V17.8751H18.9379V17.5403C18.9379 17.2103 18.8287 17.0454 18.6104 17.0454Z" fill="white"/>
<path d="M12.2636 11.3824V13.3552H12.9915V11.3824L13.8721 8.47803H13.1296L12.6348 10.3925L12.1179 8.47803H11.3463C11.4822 8.8857 11.64 9.3394 11.8195 9.83927C12.0476 10.5089 12.1956 11.0234 12.2636 11.3824Z" fill="white"/>
<path d="M14.8471 13.406C15.182 13.406 15.4391 13.2822 15.6187 13.0347C15.7546 12.8552 15.8225 12.5688 15.8225 12.1758V10.9019C15.8225 10.5137 15.7544 10.2297 15.6187 10.0502C15.4391 9.80268 15.182 9.67892 14.8471 9.67892C14.5219 9.67892 14.2671 9.80268 14.0827 10.0502C13.9469 10.2297 13.879 10.5137 13.879 10.9019V12.1758C13.879 12.5639 13.9468 12.8503 14.0827 13.0347C14.2672 13.2822 14.5219 13.406 14.8471 13.406ZM14.534 10.7708C14.534 10.436 14.6384 10.2685 14.8471 10.2685C15.0558 10.2685 15.1601 10.436 15.1601 10.7708V12.2994C15.1601 12.6392 15.0558 12.809 14.8471 12.809C14.6384 12.809 14.534 12.6391 14.534 12.2994V10.7708Z" fill="white"/>
<path d="M16.8488 13.4059C17.0916 13.4059 17.3416 13.2554 17.5987 12.9545V13.3548H18.2611V9.72254H17.5987V12.4959C17.4531 12.7046 17.3149 12.8088 17.1837 12.8088C17.0962 12.8088 17.0453 12.7555 17.0308 12.6487C17.0259 12.639 17.0235 12.554 17.0235 12.3939V9.72254H16.3611V12.5906C16.3611 12.838 16.3806 13.02 16.4194 13.1365C16.4825 13.3161 16.6256 13.4059 16.8488 13.4059Z" fill="white"/>
</svg>
